<svg width="162" height="32" viewBox="0 0 162 32" fill="none" xmlns="http://www.w3.org/2000/svg">
<path fill-rule="evenodd" clip-rule="evenodd" d="M77.4557 3.45719C77.149 3.51253 76.8674 3.66253 76.6503 3.88613C76.4332 4.10973 76.2916 4.39571 76.2453 4.70391L73.7882 21.2441C73.7711 21.3606 73.7819 21.4796 73.8197 21.5912C73.8576 21.7028 73.9214 21.8038 74.0059 21.8859C74.0903 21.9681 74.1931 22.029 74.3057 22.0636C74.4183 22.0983 74.5376 22.1057 74.6536 22.0853L79.7978 21.1775C79.9231 21.155 80.0521 21.1651 80.1723 21.2066C80.2926 21.2482 80.4003 21.3199 80.4849 21.4149C80.5696 21.5099 80.6285 21.625 80.6561 21.7493C80.6836 21.8735 80.6788 22.0028 80.6421 22.1246L77.9853 31.0423C77.9382 31.1998 77.9445 31.3684 78.0033 31.5219C78.0621 31.6754 78.1701 31.8052 78.3104 31.8909C78.4507 31.9766 78.6154 32.0134 78.7788 31.9956C78.9423 31.9779 79.0952 31.9065 79.2138 31.7927L98.7286 13.1858C98.844 13.0754 98.9209 12.9307 98.9478 12.7732C98.9747 12.6157 98.9502 12.4537 98.8779 12.3111C98.8057 12.1686 98.6895 12.0532 98.5465 11.9818C98.4035 11.9104 98.2414 11.887 98.084 11.9149L93.1546 12.7833C93.0185 12.8077 92.8782 12.7937 92.7496 12.7429C92.621 12.692 92.509 12.6063 92.4264 12.4954C92.3438 12.3844 92.2937 12.2527 92.2817 12.1149C92.2698 11.9771 92.2965 11.8387 92.3588 11.7152L97.7512 1.09388C97.8171 0.969773 97.8466 0.829521 97.8362 0.689347C97.8259 0.549174 97.776 0.414807 97.6924 0.301793C97.6088 0.188779 97.495 0.101736 97.364 0.050734C97.233 -0.000268201 97.0903 -0.0131452 96.9523 0.0135929L77.4557 3.45719ZM85.8922 13.5913C86.8 13.9514 87.3538 14.1783 87.1571 13.0587C87.0723 12.5765 86.8933 12.1157 86.6303 11.7027C86.3674 11.2896 86.0257 10.9324 85.6247 10.6514C85.2238 10.3704 84.7714 10.1711 84.2934 10.065C83.8154 9.95884 83.3212 9.94787 82.839 10.0327C81.8651 10.2041 80.9992 10.7553 80.4317 11.5651C79.8642 12.3749 79.6416 13.3769 79.813 14.3508C80.0127 15.4704 80.4666 15.0619 81.1838 14.4204C81.7496 13.912 82.4819 13.2554 83.3776 13.0981C84.2733 12.9407 85.1751 13.3068 85.8922 13.5913Z" fill="white"/>
<path fill-rule="evenodd" clip-rule="evenodd" d="M7.77079 29.4684C8.52493 29.6798 9.30556 29.7817 10.0887 29.771C11.303 29.7754 12.5048 29.526 13.617 29.0387C14.7189 28.5308 15.7101 27.8111 16.5341 26.9205C17.4062 25.979 18.0911 24.8802 18.5525 23.6826C19.0779 22.396 19.3413 21.0175 19.3271 19.6278C19.341 18.2371 19.0776 16.8577 18.5525 15.5699C18.0965 14.3832 17.4106 13.2983 16.5341 12.3775C15.725 11.4703 14.7301 10.7479 13.617 10.2593C12.5151 9.74569 11.3135 9.4812 10.0978 9.4846C9.35294 9.47028 8.61137 9.58705 7.90696 9.82957C7.36234 10.0064 6.83138 10.2229 6.31831 10.4771C5.83002 10.7464 5.3698 11.0637 4.9445 11.4243V2.36743H0V29.3231H3.64937L4.50573 27.6134C4.96373 28.0343 5.4719 28.3972 6.01873 28.6937C6.57441 29.0118 7.16157 29.2714 7.77079 29.4684V29.4684ZM5.92493 23.5586C4.98081 22.5781 4.50775 21.2669 4.50573 19.6248C4.50371 17.9826 4.97678 16.6714 5.92493 15.6909C6.37724 15.2159 6.92412 14.8409 7.53028 14.5902C8.13645 14.3395 8.78843 14.2186 9.44417 14.2354C10.1008 14.2204 10.7533 14.3432 11.3594 14.596C11.9656 14.8488 12.5121 15.2259 12.9634 15.7031C13.9075 16.6794 14.3796 17.9907 14.3796 19.6369C14.3796 21.283 13.9075 22.5943 12.9634 23.5707C12.5118 24.0472 11.9652 24.4238 11.3591 24.6761C10.7529 24.9283 10.1006 25.0507 9.44417 25.0353C8.78684 25.0495 8.13384 24.9254 7.52756 24.671C6.92128 24.4167 6.37526 24.0376 5.92493 23.5586V23.5586Z" fill="white"/>
<path d="M48.3093 5.06439H44.0517V7.62439C44.0517 9.19792 43.272 9.98569 41.7126 9.98771H40.4356V14.0486H43.4132V22.6818C43.3981 23.6761 43.5568 24.6653 43.8822 25.6049C44.1981 26.4297 44.6593 27.1912 45.2439 27.8533C45.8325 28.4769 46.5419 28.9742 47.3289 29.3148C48.186 29.6354 49.0948 29.7955 50.0099 29.7869C50.5712 29.7964 51.1308 29.724 51.6712 29.572C51.9044 29.5222 52.1324 29.4503 52.352 29.3572V25.0451C52.2429 25.1003 52.1283 25.1439 52.0101 25.1752C51.8981 25.2025 51.771 25.2327 51.6288 25.26H51.0751C50.702 25.2782 50.329 25.2227 49.9775 25.0965C49.6259 24.9703 49.3027 24.776 49.0264 24.5247C48.5249 23.9577 48.2653 23.2169 48.3032 22.4609V14.0486H52.5578V9.55801H48.3093V5.06439Z" fill="white"/>
<path d="M64.233 9.3767C64.0328 9.34547 63.8303 9.33129 63.6278 9.33434C62.9324 9.32423 62.2423 9.4571 61.6003 9.72469C61.0744 9.92707 60.581 10.2054 60.1358 10.5508C59.6645 10.8806 59.2427 11.276 58.883 11.7249L58.0206 9.54918H54.3561V29.5481H59.3097V18.8965C59.3097 17.5933 59.6829 16.5504 60.4293 15.7676C60.8124 15.3676 61.2757 15.053 61.7888 14.8444C62.3019 14.6359 62.8533 14.538 63.4069 14.5572C63.6376 14.5545 63.8682 14.5687 64.0968 14.5996C64.3268 14.6268 64.5144 14.6571 64.6566 14.6873C64.7988 14.7176 64.9864 14.7448 65.1317 14.7721V9.54918L64.699 9.46446C64.5628 9.4342 64.4055 9.39486 64.233 9.3767Z" fill="white"/>
<path fill-rule="evenodd" clip-rule="evenodd" d="M39.3406 23.5344C39.0519 24.3365 38.6438 25.0904 38.1302 25.7706C37.594 26.5394 36.9428 27.2211 36.1996 27.792C35.4151 28.3883 34.5475 28.8665 33.6244 29.2112C32.6396 29.5928 31.591 29.7828 30.5349 29.771C29.2212 29.7782 27.9202 29.5145 26.713 28.9964C25.5464 28.4579 24.4857 27.7149 23.5811 26.8025C22.6868 25.8733 21.9618 24.7949 21.4387 23.6161C20.9203 22.3614 20.6579 21.0157 20.6671 19.6581C20.6554 18.316 20.9179 16.9856 21.4387 15.7485C21.957 14.553 22.6846 13.4596 23.5872 12.5198C24.4863 11.6125 25.5489 10.8835 26.7191 10.3713C27.8945 9.84937 29.1645 9.57393 30.4505 9.56196C31.7365 9.54999 33.0114 9.80175 34.1963 10.3017C35.3281 10.779 36.3506 11.4823 37.2012 12.3685C38.0852 13.2961 38.7719 14.3935 39.2195 15.5942C39.7465 16.8908 40.0089 18.2798 39.9911 19.6793C39.9922 19.9089 39.9781 20.1384 39.9488 20.3662L39.8641 20.9714C39.8338 21.2014 39.8066 21.4162 39.7763 21.619H26.0261C26.2422 22.5691 26.7527 23.4268 27.4847 24.07C28.2291 24.7297 29.2458 25.0595 30.5349 25.0595C31.0864 25.0737 31.6368 25.0012 32.1659 24.8447C32.5727 24.7223 32.9622 24.5484 33.3249 24.3272C33.6555 24.1108 33.9497 23.8432 34.1963 23.5344H39.3406ZM30.5409 14.2869C29.3778 14.2412 28.2411 14.6418 27.3636 15.4066C26.5679 16.1399 26.0263 17.1076 25.8173 18.1693H35.2615C35.0455 17.1039 34.4877 16.1382 33.6728 15.4187C32.817 14.6465 31.6927 14.2402 30.5409 14.2869Z" fill="white"/>
<rect x="115" y="4" width="47" height="24" rx="4" fill="white"/>
<path d="M128.026 21.168C127.503 21.168 127.046 21.07 126.654 20.874C126.262 20.678 125.945 20.4027 125.702 20.048L125.506 21H123.91V10.92H125.702V15.05C125.926 14.742 126.22 14.4713 126.584 14.238C126.957 14.0047 127.438 13.888 128.026 13.888C128.679 13.888 129.263 14.0467 129.776 14.364C130.289 14.6813 130.695 15.1153 130.994 15.666C131.293 16.2167 131.442 16.842 131.442 17.542C131.442 18.242 131.293 18.8673 130.994 19.418C130.695 19.9593 130.289 20.3887 129.776 20.706C129.263 21.014 128.679 21.168 128.026 21.168ZM127.648 19.6C128.217 19.6 128.689 19.4087 129.062 19.026C129.435 18.6433 129.622 18.1487 129.622 17.542C129.622 16.9353 129.435 16.436 129.062 16.044C128.689 15.652 128.217 15.456 127.648 15.456C127.069 15.456 126.593 15.652 126.22 16.044C125.856 16.4267 125.674 16.9213 125.674 17.528C125.674 18.1347 125.856 18.634 126.22 19.026C126.593 19.4087 127.069 19.6 127.648 19.6ZM136.137 21.168C135.437 21.168 134.816 21.0187 134.275 20.72C133.733 20.4213 133.309 20.0013 133.001 19.46C132.693 18.9187 132.539 18.2933 132.539 17.584C132.539 16.8653 132.688 16.226 132.987 15.666C133.295 15.106 133.715 14.672 134.247 14.364C134.788 14.0467 135.423 13.888 136.151 13.888C136.832 13.888 137.434 14.0373 137.957 14.336C138.479 14.6347 138.885 15.0453 139.175 15.568C139.473 16.0813 139.623 16.6553 139.623 17.29C139.623 17.3927 139.618 17.5 139.609 17.612C139.609 17.724 139.604 17.8407 139.595 17.962H134.317C134.354 18.5033 134.541 18.928 134.877 19.236C135.222 19.544 135.637 19.698 136.123 19.698C136.487 19.698 136.79 19.6187 137.033 19.46C137.285 19.292 137.471 19.0773 137.593 18.816H139.413C139.282 19.2547 139.063 19.656 138.755 20.02C138.456 20.3747 138.083 20.6547 137.635 20.86C137.196 21.0653 136.697 21.168 136.137 21.168ZM136.151 15.344C135.712 15.344 135.325 15.47 134.989 15.722C134.653 15.9647 134.438 16.338 134.345 16.842H137.803C137.775 16.3847 137.607 16.0207 137.299 15.75C136.991 15.4793 136.608 15.344 136.151 15.344ZM143.821 21C143.093 21 142.51 20.8227 142.071 20.468C141.632 20.1133 141.413 19.4833 141.413 18.578V15.554H140.223V14.056H141.413L141.623 12.194H143.205V14.056H145.081V15.554H143.205V18.592C143.205 18.928 143.275 19.1613 143.415 19.292C143.564 19.4133 143.816 19.474 144.171 19.474H145.039V21H143.821ZM148.734 21.168C148.136 21.168 147.646 21.0747 147.264 20.888C146.881 20.692 146.596 20.4353 146.41 20.118C146.223 19.8007 146.13 19.4507 146.13 19.068C146.13 18.424 146.382 17.9013 146.886 17.5C147.39 17.0987 148.146 16.898 149.154 16.898H150.918V16.73C150.918 16.254 150.782 15.904 150.512 15.68C150.241 15.456 149.905 15.344 149.504 15.344C149.14 15.344 148.822 15.4327 148.552 15.61C148.281 15.778 148.113 16.03 148.048 16.366H146.298C146.344 15.862 146.512 15.4233 146.802 15.05C147.1 14.6767 147.483 14.392 147.95 14.196C148.416 13.9907 148.939 13.888 149.518 13.888C150.507 13.888 151.286 14.1353 151.856 14.63C152.425 15.1247 152.71 15.8247 152.71 16.73V21H151.184L151.016 19.88C150.81 20.2533 150.521 20.5613 150.148 20.804C149.784 21.0467 149.312 21.168 148.734 21.168ZM149.14 19.768C149.653 19.768 150.05 19.6 150.33 19.264C150.619 18.928 150.801 18.5127 150.876 18.018H149.35C148.874 18.018 148.533 18.1067 148.328 18.284C148.122 18.452 148.02 18.662 148.02 18.914C148.02 19.1847 148.122 19.3947 148.328 19.544C148.533 19.6933 148.804 19.768 149.14 19.768Z" fill="#171819"/>
</svg>
